<svg width="14" height="14" viewBox="0 0 14 14" fill="none" xmlns="http://www.w3.org/2000/svg">
<g clip-path="url(#clip0_181332_5810)">
<path d="M12.7502 1.87793H10.1252V0.87793C10.1252 0.80918 10.069 0.75293 10.0002 0.75293H9.12523C9.05648 0.75293 9.00023 0.80918 9.00023 0.87793V1.87793H5.00023V0.87793C5.00023 0.80918 4.94398 0.75293 4.87523 0.75293H4.00023C3.93148 0.75293 3.87523 0.80918 3.87523 0.87793V1.87793H1.25023C0.973666 1.87793 0.750229 2.10137 0.750229 2.37793V12.7529C0.750229 13.0295 0.973666 13.2529 1.25023 13.2529H12.7502C13.0268 13.2529 13.2502 13.0295 13.2502 12.7529V2.37793C13.2502 2.10137 13.0268 1.87793 12.7502 1.87793ZM12.1252 12.1279H1.87523V6.19043H12.1252V12.1279ZM1.87523 5.12793V3.00293H3.87523V3.75293C3.87523 3.82168 3.93148 3.87793 4.00023 3.87793H4.87523C4.94398 3.87793 5.00023 3.82168 5.00023 3.75293V3.00293H9.00023V3.75293C9.00023 3.82168 9.05648 3.87793 9.12523 3.87793H10.0002C10.069 3.87793 10.1252 3.82168 10.1252 3.75293V3.00293H12.1252V5.12793H1.87523Z" fill="black" fill-opacity="0.25"/>
</g>
<defs>
<clipPath id="clip0_181332_5810">
<rect width="14" height="14" fill="white" transform="translate(0 0.000976562)"/>
</clipPath>
</defs>
</svg>
