<svg width="18" height="4" viewBox="0 0 18 4" fill="none" xmlns="http://www.w3.org/2000/svg">
<path d="M0.204346 2.09229C0.204346 1.61377 0.372965 1.20589 0.710205 0.868652C1.052 0.531413 1.45988 0.362793 1.93384 0.362793C2.41235 0.362793 2.82023 0.531413 3.15747 0.868652C3.49927 1.20589 3.67017 1.61377 3.67017 2.09229C3.67017 2.5708 3.49927 2.98096 3.15747 3.32275C2.82023 3.65999 2.41235 3.82861 1.93384 3.82861C1.45988 3.82861 1.052 3.65999 0.710205 3.32275C0.372965 2.98096 0.204346 2.5708 0.204346 2.09229ZM7.11255 2.09229C7.11255 1.61377 7.28117 1.20589 7.61841 0.868652C7.96021 0.531413 8.36808 0.362793 8.84204 0.362793C9.32056 0.362793 9.72843 0.531413 10.0657 0.868652C10.4075 1.20589 10.5784 1.61377 10.5784 2.09229C10.5784 2.5708 10.4075 2.98096 10.0657 3.32275C9.72843 3.65999 9.32056 3.82861 8.84204 3.82861C8.36808 3.82861 7.96021 3.65999 7.61841 3.32275C7.28117 2.98096 7.11255 2.5708 7.11255 2.09229ZM14.0208 2.09229C14.0208 1.61377 14.1894 1.20589 14.5266 0.868652C14.8684 0.531413 15.2763 0.362793 15.7502 0.362793C16.2288 0.362793 16.6366 0.531413 16.9739 0.868652C17.3157 1.20589 17.4866 1.61377 17.4866 2.09229C17.4866 2.5708 17.3157 2.98096 16.9739 3.32275C16.6366 3.65999 16.2288 3.82861 15.7502 3.82861C15.2763 3.82861 14.8684 3.65999 14.5266 3.32275C14.1894 2.98096 14.0208 2.5708 14.0208 2.09229Z" fill="black" fill-opacity="0.25"/>
</svg>
