<svg width="16" height="16" viewBox="0 0 16 16" fill="none" xmlns="http://www.w3.org/2000/svg">
<g clip-path="url(#clip0_180719_6304)">
<path d="M15.4305 1.71411H0.573382C0.25731 1.71411 0.00195312 1.96947 0.00195312 2.28554V13.7141C0.00195312 14.0302 0.25731 14.2855 0.573382 14.2855H15.4305C15.7466 14.2855 16.002 14.0302 16.002 13.7141V2.28554C16.002 1.96947 15.7466 1.71411 15.4305 1.71411ZM14.7162 3.69268V12.9998H1.28767V3.69268L0.79481 3.30875L1.4966 2.40697L2.26088 3.00161H13.7448L14.5091 2.40697L15.2109 3.30875L14.7162 3.69268ZM13.7448 2.99983L8.00195 7.46411L2.2591 2.99983L1.49481 2.40518L0.793025 3.30697L1.28588 3.6909L7.38588 8.43375C7.56131 8.57004 7.77713 8.64402 7.99928 8.64402C8.22142 8.64402 8.43724 8.57004 8.61267 8.43375L14.7162 3.69268L15.2091 3.30875L14.5073 2.40697L13.7448 2.99983Z" fill="#1890FF"/>
</g>
<defs>
<clipPath id="clip0_180719_6304">
<rect width="16" height="16" fill="white"/>
</clipPath>
</defs>
</svg>
