<svg width="12" height="12" viewBox="0 0 12 12" fill="none" xmlns="http://www.w3.org/2000/svg">
<path d="M6.46863 0.377197H5.53113C5.44779 0.377197 5.40613 0.418864 5.40613 0.502197V5.40845H0.750244C0.666911 5.40845 0.625244 5.45011 0.625244 5.53345V6.47095C0.625244 6.55428 0.666911 6.59595 0.750244 6.59595H5.40613V11.5022C5.40613 11.5855 5.44779 11.6272 5.53113 11.6272H6.46863C6.55196 11.6272 6.59363 11.5855 6.59363 11.5022V6.59595H11.2502C11.3336 6.59595 11.3752 6.55428 11.3752 6.47095V5.53345C11.3752 5.45011 11.3336 5.40845 11.2502 5.40845H6.59363V0.502197C6.59363 0.418864 6.55196 0.377197 6.46863 0.377197Z" fill="#1890FF"/>
</svg>
