<svg width="26" height="26" viewBox="0 0 26 26" fill="none" xmlns="http://www.w3.org/2000/svg">
<path d="M13 0.849976C6.23516 0.849976 0.75 6.33513 0.75 13.1C0.75 19.8648 6.23516 25.35 13 25.35C19.7648 25.35 25.25 19.8648 25.25 13.1C25.25 6.33513 19.7648 0.849976 13 0.849976ZM7.63242 7.07068C8.37891 7.07068 8.98594 7.67498 8.98594 8.42146C8.98594 9.16794 8.38164 9.77224 7.63242 9.77224C7.27417 9.77224 6.9306 9.62993 6.67728 9.37661C6.42395 9.12329 6.28164 8.77971 6.28164 8.42146C6.28164 8.06321 6.42395 7.71963 6.67728 7.46631C6.9306 7.21299 7.27417 7.07068 7.63242 7.07068ZM9.03242 14.9047C8.66055 16.0613 8.75352 15.6347 7.27148 18.8558L5.125 17.516C5.125 17.516 7.52305 15.334 8.0125 14.3386C8.5375 13.2886 7.43555 12.7281 7.43555 12.7281L5.78945 11.7027L6.68359 10.3301C7.925 11.2515 8.01523 11.3308 8.84922 12.1676C9.5 12.8211 9.41523 13.7207 9.03242 14.9047ZM20.7137 16.4086C20.2953 20.3406 15.1793 18.8777 15.1793 18.8777L15.4582 17.7539L16.6422 18.0082C18.8297 18.1449 18.6191 16.2336 18.6191 16.2336V10.6664C18.6355 8.55271 16.634 8.33123 13.0355 9.61912L13.8723 9.84607C13.8039 10.0922 13.5305 10.4804 13.1832 10.9015H17.9957V11.875H15.2859V13.0918H17.9848V14.0679H15.2859V16.1078C15.6934 15.9765 16.068 15.7933 16.3934 15.5472L16.1555 14.6586L17.427 14.2648L18.4879 16.8597L16.9211 17.5133L16.6422 16.4797C15.9422 17.0129 14.4875 17.7922 11.9445 17.7211C9.23203 17.7922 9.9293 14.6586 9.9293 14.6586L9.99766 14.623H11.9062C11.8926 15.025 11.7258 15.6812 11.9527 16.0394C12.1387 16.3347 12.6145 16.384 12.918 16.3976C12.9535 16.4004 12.9891 16.4004 13.0246 16.4004V14.0679H10.2629V13.0918H13.0246V11.875H12.3164C11.6957 12.534 11.127 13.0808 11.127 13.0808L10.2902 12.3508C10.8836 11.7246 11.4742 10.7347 11.8434 10.0758C11.5453 10.1961 11.2418 10.3273 10.9246 10.464C10.6184 10.8551 10.2629 11.257 9.86641 11.6535C9.88008 11.6754 8.49922 10.8769 8.49922 10.8769C9.92656 9.66287 10.725 7.05154 10.725 7.05154L12.7074 7.60935C12.7074 7.60935 12.5461 7.99216 12.2043 8.58279C20.1422 6.3324 20.6098 9.96365 20.6098 9.96365C20.6098 9.96365 21.132 12.4738 20.7137 16.4086Z" fill="black" fill-opacity="0.45"/>
</svg>
