<svg width="26" height="26" viewBox="0 0 26 26" fill="none" xmlns="http://www.w3.org/2000/svg">
<path d="M13 0.849976C6.23516 0.849976 0.75 6.33513 0.75 13.1C0.75 19.8648 6.23516 25.35 13 25.35C19.7648 25.35 25.25 19.8648 25.25 13.1C25.25 6.33513 19.7648 0.849976 13 0.849976ZM11.7859 19.225C8.65508 19.225 5.45312 17.7047 5.45312 15.2027C5.45312 13.8957 6.27891 12.3836 7.70352 10.9562C9.60391 9.0531 11.8215 8.18357 12.6555 9.02029C13.0246 9.38943 13.0602 10.0265 12.8223 10.7867C12.6992 11.1695 13.1805 10.959 13.1805 10.959C14.7172 10.3136 16.057 10.2754 16.5465 10.9781C16.809 11.3527 16.7816 11.875 16.541 12.4847C16.4289 12.7636 16.5766 12.8074 16.7871 12.8703C17.6539 13.1383 18.6164 13.789 18.6164 14.9347C18.6219 16.8351 15.8902 19.225 11.7859 19.225ZM17.4543 11.2734C17.5061 11.1144 17.5151 10.9445 17.4806 10.7809C17.446 10.6172 17.3691 10.4655 17.2574 10.341C17.1457 10.2168 17.0032 10.1244 16.8442 10.073C16.6853 10.0216 16.5156 10.0132 16.3523 10.0484C16.2882 10.0621 16.2221 10.0629 16.1577 10.051C16.0932 10.0391 16.0318 10.0146 15.9768 9.97893C15.9218 9.94325 15.8744 9.8971 15.8373 9.84311C15.8001 9.78911 15.774 9.72833 15.7604 9.66423C15.7467 9.60014 15.7458 9.53398 15.7577 9.46954C15.7697 9.4051 15.7942 9.34364 15.8298 9.28867C15.8655 9.2337 15.9117 9.18629 15.9657 9.14916C16.0197 9.11202 16.0804 9.08589 16.1445 9.07224C16.8035 8.93279 17.5145 9.13513 17.9957 9.67107C18.4797 10.207 18.6082 10.9371 18.4031 11.5797C18.3832 11.6419 18.3511 11.6996 18.3088 11.7494C18.2665 11.7992 18.2148 11.8401 18.1566 11.8699C18.0984 11.8996 18.0349 11.9175 17.9697 11.9226C17.9046 11.9277 17.8391 11.9199 17.777 11.8996C17.7146 11.8798 17.6567 11.8478 17.6067 11.8056C17.5567 11.7634 17.5156 11.7117 17.4856 11.6535C17.4556 11.5953 17.4374 11.5318 17.432 11.4666C17.4267 11.4014 17.4342 11.3357 17.4543 11.2734ZM20.3527 12.2113C20.3527 12.2113 20.3527 12.214 20.3527 12.2113C20.3298 12.2838 20.2927 12.351 20.2436 12.4091C20.1946 12.4672 20.1345 12.515 20.0669 12.5498C19.9994 12.5846 19.9255 12.6057 19.8498 12.6119C19.774 12.6181 19.6977 12.6093 19.6254 12.5859C19.4793 12.5384 19.358 12.4348 19.2883 12.2979C19.2185 12.161 19.206 12.002 19.2535 11.8558C19.5543 10.9207 19.3629 9.85427 18.6602 9.07224C18.326 8.7016 17.9002 8.42538 17.4255 8.27131C16.9509 8.11725 16.444 8.09076 15.9559 8.19451C15.8815 8.21039 15.8048 8.21146 15.73 8.19764C15.6553 8.18383 15.584 8.15541 15.5202 8.11401C15.4565 8.07261 15.4015 8.01905 15.3585 7.95638C15.3155 7.89371 15.2853 7.82317 15.2695 7.7488C15.2534 7.67464 15.252 7.59801 15.2655 7.52332C15.279 7.44863 15.3072 7.37734 15.3484 7.31356C15.3895 7.24979 15.4429 7.19477 15.5054 7.15168C15.5679 7.10859 15.6383 7.07828 15.7125 7.06248C17.0633 6.77537 18.5234 7.19373 19.516 8.29568C20.5086 9.3949 20.7766 10.8961 20.3527 12.2113ZM11.2063 12.3781C8.70703 12.6242 6.81211 14.1582 6.97617 15.8015C7.1375 17.4449 9.29492 18.5769 11.7941 18.3308C14.2934 18.082 16.1883 16.5508 16.0242 14.9047C15.8629 13.2613 13.7055 12.1293 11.2063 12.3781ZM13.3992 16.2527C12.8879 17.4093 11.4223 18.0246 10.1781 17.6226C8.97773 17.2344 8.46914 16.0449 8.99414 14.9758C9.51094 13.9258 10.8535 13.3324 12.043 13.6414C13.2734 13.9613 13.9023 15.1234 13.3992 16.2527ZM10.8562 15.3722C10.468 15.2109 9.97031 15.3777 9.72969 15.7523C9.48906 16.1297 9.60117 16.5781 9.98398 16.7531C10.375 16.9308 10.8918 16.7613 11.1324 16.3758C11.373 15.9847 11.2473 15.539 10.8562 15.3722ZM11.8105 14.9758C11.6629 14.9156 11.477 14.9894 11.3895 15.1344C11.3047 15.282 11.3512 15.4488 11.5016 15.5117C11.652 15.5746 11.8461 15.5035 11.9336 15.3531C12.0156 15.2 11.9609 15.0304 11.8105 14.9758Z" fill="black" fill-opacity="0.45"/>
</svg>
