<svg width="26" height="26" viewBox="0 0 26 26" fill="none" xmlns="http://www.w3.org/2000/svg">
<path d="M7.43828 14.0215C6.89688 14.0761 5.87695 14.314 5.32188 14.8035C3.65391 16.2527 4.65195 18.9051 8.02891 18.9051C9.99219 18.9051 11.9527 17.6554 13.4922 15.6511C11.2992 14.5875 9.44258 13.8246 7.43828 14.0215ZM20.0301 15.8535C22.7672 16.7668 24.2602 17.0293 24.5883 17.0785C25.0282 15.7982 25.2518 14.4537 25.25 13.1C25.25 6.33513 19.7648 0.849976 13 0.849976C6.23516 0.849976 0.75 6.33513 0.75 13.1C0.75 19.8648 6.23516 25.35 13 25.35C17.2629 25.35 21.0172 23.1707 23.2129 19.8676C21.1457 19.0527 17.3723 17.5433 15.3707 16.5836C13.4594 18.9269 10.993 20.3515 8.43359 20.3515C4.10234 20.3515 2.63398 16.5754 4.68203 14.0898C5.12773 13.5484 5.89062 13.0316 7.06914 12.739C8.91484 12.2879 11.8543 13.0207 14.6078 13.9258C15.1027 13.0152 15.5211 12.0144 15.8301 10.948H7.34258V10.0922H11.7176V8.55544H6.41836V7.69958H11.7176V5.50935C11.7176 5.50935 11.7176 5.14021 12.0922 5.14021H14.2305V7.69958H19.4723V8.55544H14.2332V10.0922H18.5098C18.0996 11.7629 17.4789 13.3023 16.6996 14.6531C17.9984 15.1207 19.1633 15.5636 20.0301 15.8535Z" fill="black" fill-opacity="0.45"/>
</svg>
